<svg
	width="19"
	height="18"
	viewBox="0 0 19 18" 
	fill="none" 
	xmlns="http://www.w3.org/2000/svg"
>
	<path
		d="M9.65327 1.77719C11.9952 1.77719 12.2854 1.77719 13.218 1.81864C14.0678 1.86009 14.5445 2.00517 14.8553 2.12953C15.2698 2.29533 15.56 2.48186 15.8709 2.79274C16.1818 3.10362 16.3683 3.39377 16.5341 3.80828C16.6585 4.11916 16.8035 4.57512 16.845 5.44559C16.8864 6.37823 16.8864 6.64766 16.8864 9.01036C16.8864 11.3523 16.8864 11.6425 16.845 12.5751C16.8035 13.4249 16.6585 13.9016 16.5341 14.2124C16.3683 14.6269 16.1818 14.9171 15.8709 15.228C15.56 15.5389 15.2698 15.7254 14.8553 15.8912C14.5445 16.0155 14.0885 16.1606 13.218 16.2021C12.2854 16.2435 12.016 16.2435 9.65327 16.2435C7.3113 16.2435 7.02114 16.2435 6.08849 16.2021C5.23875 16.1606 4.76208 16.0155 4.4512 15.8912C4.03669 15.7254 3.74653 15.5389 3.43565 15.228C3.12476 14.9171 2.93823 14.6269 2.77243 14.2124C2.64808 13.9016 2.503 13.4456 2.46155 12.5751C2.4201 11.6425 2.4201 11.3731 2.4201 9.01036C2.4201 6.66839 2.4201 6.37823 2.46155 5.44559C2.503 4.59584 2.64808 4.11916 2.77243 3.80828C2.93823 3.39377 3.12476 3.10362 3.43565 2.79274C3.74653 2.48186 4.03669 2.29533 4.4512 2.12953C4.76208 2.00517 5.21803 1.86009 6.08849 1.81864C7.02114 1.77719 7.3113 1.77719 9.65327 1.77719ZM9.65327 0.181335C7.26984 0.181335 6.95896 0.181336 6.02632 0.243512C5.09368 0.284963 4.45119 0.430041 3.89161 0.65802C3.3113 0.886 2.81389 1.17616 2.3372 1.67357C1.83979 2.17098 1.54963 2.64766 1.32165 3.22797C1.09367 3.78756 0.948595 4.43004 0.907144 5.36269C0.865694 6.29533 0.844971 6.60621 0.844971 8.98963C0.844971 11.3731 0.844968 11.6839 0.907144 12.6166C0.948595 13.5492 1.09367 14.1917 1.32165 14.7513C1.54963 15.3316 1.83979 15.829 2.3372 16.3057C2.83461 16.8031 3.3113 17.0933 3.89161 17.3212C4.45119 17.5492 5.09368 17.6943 6.02632 17.7358C6.95896 17.7772 7.26984 17.7979 9.65327 17.7979C12.0367 17.7979 12.3476 17.7979 13.2802 17.7358C14.2129 17.6943 14.8553 17.5492 15.4149 17.3212C15.9952 17.0933 16.4926 16.8031 16.9693 16.3057C17.4667 15.8083 17.7569 15.3316 17.9849 14.7513C18.2129 14.1917 18.3579 13.5492 18.3994 12.6166C18.4408 11.6839 18.4616 11.3731 18.4616 8.98963C18.4616 6.60621 18.4616 6.29533 18.3994 5.36269C18.3579 4.43004 18.2129 3.78756 17.9849 3.22797C17.7569 2.64766 17.4667 2.15025 16.9693 1.67357C16.4719 1.17616 15.9952 0.886 15.4149 0.65802C14.8553 0.430041 14.2129 0.284963 13.2802 0.243512C12.3476 0.202061 12.0367 0.181335 9.65327 0.181335Z"
		fill="white"
	/>
	<path
		d="M9.65339 4.47145C7.14562 4.47145 5.13525 6.50254 5.13525 8.98959C5.13525 11.4974 7.16634 13.5077 9.65339 13.5077C12.1612 13.5077 14.1715 11.4766 14.1715 8.98959C14.1715 6.50254 12.1612 4.47145 9.65339 4.47145ZM9.65339 11.9326C8.03681 11.9326 6.71038 10.6269 6.71038 8.98959C6.71038 7.35228 8.01608 6.04658 9.65339 6.04658C11.2907 6.04658 12.5964 7.35228 12.5964 8.98959C12.5964 10.6269 11.27 11.9326 9.65339 11.9326Z"
		fill="white"
	/>
	<path
		d="M14.3578 5.36274C14.9415 5.36274 15.4148 4.88951 15.4148 4.30575C15.4148 3.72198 14.9415 3.24875 14.3578 3.24875C13.774 3.24875 13.3008 3.72198 13.3008 4.30575C13.3008 4.88951 13.774 5.36274 14.3578 5.36274Z"
		fill="white"
	/>
</svg>
