<svg
	width="16"
	height="13"
	viewBox="0 0 16 13"
	fill="none"
	xmlns="http://www.w3.org/2000/svg"
>
	<path
		d="M15.482 0.289295C15.4198 0.123509 15.3576 0.0820675 15.2747 0.0613442C15.0468 -0.0215487 14.6945 0.102806 14.6945 0.102806C14.6945 0.102806 1.61812 4.80697 0.872079 5.32505C0.706294 5.42867 0.664845 5.51155 0.623398 5.57372C0.499059 5.94674 0.892798 6.11254 0.892798 6.11254L4.27069 7.21086C4.27069 7.21086 4.39502 7.23158 4.43647 7.21086C5.20323 6.73422 12.1455 2.34091 12.5393 2.19585C12.6014 2.17512 12.6429 2.19584 12.6429 2.23728C12.4771 2.79681 6.44663 8.16412 6.44663 8.16412C6.44663 8.16412 6.4259 8.18485 6.40518 8.2263L6.09433 11.5627C6.09433 11.5627 5.96999 12.5782 6.98543 11.5627C7.71074 10.8374 8.41533 10.2365 8.74691 9.94634C9.90741 10.7545 11.1508 11.6249 11.6896 12.1015C11.959 12.3295 12.187 12.3709 12.3735 12.3709C12.8916 12.3502 13.0366 11.7907 13.0366 11.7907C13.0366 11.7907 15.4198 2.19583 15.5027 0.910991C15.5027 0.786652 15.5234 0.703779 15.5234 0.620887C15.5027 0.475824 15.5027 0.351464 15.482 0.289295Z"
		fill="white"
	/>
</svg>
