<svg
	width="19"
	height="19"
	viewBox="0 0 19 19"
	fill="none"
	xmlns="http://www.w3.org/2000/svg"
>
	<path
		fill-rule="evenodd"
		clip-rule="evenodd"
		d="M15.6953 3.44037C14.0166 1.76162 11.799 0.849697 9.41553 0.828972C4.52434 0.828972 0.545065 4.80825 0.545065 9.69944C0.545065 11.2538 0.959575 12.7875 1.72642 14.1347L0.462158 18.7357L5.16683 17.4922C6.47253 18.1969 7.92331 18.5699 9.41553 18.5699C14.3067 18.5699 18.286 14.5906 18.286 9.69944C18.3067 7.35747 17.3741 5.11913 15.6953 3.44037ZM9.41553 17.0984C8.08911 17.0984 6.78341 16.7461 5.66424 16.0621L5.39481 15.8963L2.59688 16.6217L3.34299 13.9067L3.17719 13.6373C2.43108 12.4559 2.05802 11.1088 2.05802 9.72017C2.05802 5.65799 5.37409 2.34193 9.43627 2.34193C11.4052 2.34193 13.2497 3.10877 14.6591 4.49737C16.0477 5.88597 16.8145 7.75126 16.8145 9.72017C16.7938 13.7823 13.4984 17.0984 9.41553 17.0984ZM13.4777 11.5647C13.2497 11.4611 12.172 10.9222 11.9648 10.8393C11.7575 10.7564 11.6124 10.7357 11.4674 10.943C11.3223 11.1709 10.887 11.6684 10.7627 11.8134C10.6383 11.9585 10.514 11.9792 10.286 11.8756C10.058 11.772 9.35336 11.5233 8.50362 10.7772C7.84041 10.1969 7.40518 9.47146 7.2601 9.24348C7.13575 9.0155 7.23937 8.91188 7.36373 8.78753C7.46735 8.6839 7.5917 8.53882 7.69533 8.39375C7.79895 8.26939 7.8404 8.16576 7.9233 8.02068C8.0062 7.87561 7.96476 7.75126 7.90258 7.6269C7.84041 7.52328 7.40518 6.42483 7.21865 5.9896C7.03212 5.55436 6.84558 5.61654 6.72123 5.61654C6.59688 5.61654 6.45181 5.61654 6.286 5.61654C6.1202 5.61654 5.89222 5.67872 5.68496 5.88597C5.47771 6.11395 4.91812 6.65281 4.91812 7.73053C4.91812 8.82898 5.70569 9.88597 5.83004 10.0311C5.93367 10.1761 7.38444 12.4145 9.62279 13.3886C10.1616 13.6165 10.5554 13.7616 10.887 13.8652C11.4259 14.0311 11.9026 14.0103 12.2756 13.9481C12.7109 13.886 13.5813 13.4093 13.7679 12.8912C13.9544 12.373 13.9544 11.9378 13.8922 11.8342C13.8508 11.7305 13.685 11.6891 13.4777 11.5647Z"
		fill="white"
	/>
</svg>
