<svg
	width="20"
	height="14"
	viewBox="0 0 20 14"
	fill="none"
	xmlns="http://www.w3.org/2000/svg"
>
	<path
		d="M19.25 2.49211C19.0427 1.68382 18.4002 1.06206 17.592 0.834081C16.1412 0.440299 10.2966 0.4403 10.2966 0.4403C10.2966 0.4403 4.47279 0.440299 3.00128 0.834081C2.19299 1.04134 1.57123 1.68382 1.34325 2.49211C0.949468 3.94289 0.949463 6.98953 0.949463 6.98953C0.949463 6.98953 0.949468 10.0154 1.34325 11.4869C1.5505 12.2952 2.19299 12.917 3.00128 13.145C4.45206 13.5388 10.2966 13.5388 10.2966 13.5388C10.2966 13.5388 16.1205 13.5388 17.592 13.145C18.4002 12.9377 19.022 12.2952 19.25 11.4869C19.6438 10.0362 19.6438 6.98953 19.6438 6.98953C19.6438 6.98953 19.6438 3.94289 19.25 2.49211ZM8.45206 9.78746V4.1916L13.3018 6.98953L8.45206 9.78746Z"
		fill="white"
	/>
</svg>
