<svg
	width="12"
	height="25"
	viewBox="0 0 12 25"
	fill="none"
	xmlns="http://www.w3.org/2000/svg"
>
	<path
		fill-rule="evenodd"
		clip-rule="evenodd"
		d="M5.48663 21.6977C5.37979 21.2169 5.28185 20.7361 5.19282 20.2464C4.74764 20.1307 4.49835 19.8547 4.50725 19.6944C4.51615 19.5609 4.67642 19.3561 5.01475 19.2136C4.93462 18.7329 4.87229 18.2432 4.80997 17.7446H4.80106C4.07989 17.6466 3.67033 17.2371 3.67923 16.9967C3.69704 16.7919 3.98195 16.4625 4.59628 16.2933L4.6408 16.2755C4.61409 15.9906 4.58738 15.6968 4.56067 15.403C3.74155 15.3763 3.13612 14.8688 3.15393 14.6106C3.17173 14.3791 3.48335 14.0229 4.16892 13.836C4.26686 13.8003 4.35589 13.7647 4.44493 13.738C4.42712 13.4353 4.40931 13.1326 4.40041 12.8299L4.3826 12.8388C3.59019 12.7319 3.13612 12.2779 3.15393 12.0197C3.17173 11.7882 3.48335 11.432 4.16892 11.2451C4.23124 11.2183 4.29357 11.2005 4.35589 11.1738C4.34699 10.88 4.34699 10.5862 4.34699 10.2924C3.55458 10.1855 3.13612 9.89174 3.16283 9.62463C3.18064 9.39314 3.49226 9.037 4.17782 8.85003L4.24905 8.82332C3.82168 6.20571 2.62862 4.09559 0.812318 2.43064C0.660959 2.29709 -0.309517 1.97657 0.100042 1.07732C0.100042 0.471883 2.74437 0 6.00303 0C9.2706 0 11.9149 0.471883 11.906 1.07732C12.2622 1.74508 11.4965 2.16354 11.4252 2.22586C9.7959 3.64151 8.64736 5.38659 8.05082 7.51451C8.64736 7.78162 8.98569 8.23569 8.37135 8.53841L7.76591 8.80551C7.7214 9.06371 7.68578 9.33972 7.65907 9.60682C7.65907 9.82051 7.65907 10.0253 7.65907 10.239C8.01521 10.5506 8.86104 10.5862 8.86104 10.7821C8.86104 10.8533 8.56722 10.9334 8.39806 11.0225C8.14876 11.1293 7.89056 11.2451 7.64126 11.3608C7.63236 11.8683 7.61455 12.3669 7.59675 12.8655L7.65907 12.8388C8.01521 13.1504 8.86104 13.186 8.86104 13.3819C8.86104 13.4531 8.56722 13.5332 8.39806 13.6223C8.10424 13.7469 7.81933 13.8805 7.54333 14.014C7.51662 14.4859 7.481 14.9578 7.44539 15.4208L7.51662 15.3941C7.97069 15.4208 8.86994 15.7146 8.86994 15.8927C8.86994 15.955 8.60284 16.0351 8.45148 16.1063C8.07753 16.2666 7.71249 16.4358 7.33855 16.6049C7.28513 17.1035 7.23171 17.5932 7.16048 18.0829C7.52552 18.1007 8.496 18.3411 8.496 18.5459C8.496 18.5993 8.21109 18.7507 8.08644 18.813C7.66797 19.0356 7.31184 19.2582 6.9557 19.4718C6.92899 19.6232 6.90228 19.7746 6.87557 19.9259C6.87557 19.9259 7.9974 21.4039 6.51053 22.0449C7.40087 23.2914 6.78653 24.0304 6.01193 24.716C5.80715 24.3866 6.05645 24.1729 6.01193 23.9503C5.78044 22.9175 4.77435 22.5168 5.48663 21.6977Z"
		fill="#959EAD"
	/>
</svg>
