<svg
	width="22"
	height="19"
	viewBox="0 0 22 19"
	fill="none"
	xmlns="http://www.w3.org/2000/svg"
>
	<path
		d="M19.1189 2.72603C18.6585 2.26536 18.1118 1.89993 17.51 1.6506C16.9083 1.40128 16.2634 1.27295 15.612 1.27295C14.9607 1.27295 14.3158 1.40128 13.714 1.6506C13.1123 1.89993 12.5656 2.26536 12.1051 2.72603L11.1495 3.68164L10.1939 2.72603C9.26384 1.79595 8.00238 1.27343 6.68704 1.27343C5.3717 1.27343 4.11023 1.79595 3.18014 2.72603C2.25006 3.65612 1.72754 4.91759 1.72754 6.23293C1.72754 7.54827 2.25006 8.80974 3.18014 9.73982L4.13575 10.6954L11.1495 17.7092L18.1633 10.6954L19.1189 9.73982C19.5796 9.27937 19.945 8.73266 20.1944 8.13094C20.4437 7.52921 20.572 6.88426 20.572 6.23293C20.572 5.5816 20.4437 4.93664 20.1944 4.33492C19.945 3.73319 19.5796 3.18649 19.1189 2.72603Z"
		stroke="#C1C1C1"
		stroke-width="2"
		stroke-linecap="round"
		stroke-linejoin="round"
	/>
</svg>
