<svg width="58" height="16" viewBox="0 0 58 16" fill="none" xmlns="http://www.w3.org/2000/svg">
<path fill-rule="evenodd" clip-rule="evenodd" d="M2.71186 9.64242C2.71186 9.64242 3.02477 8.87754 3.58105 9.27737L4.3807 9.95533C4.3807 9.95533 4.79791 10.2682 4.69361 9.67719L4.20686 5.57463C4.20686 5.57463 4.11994 4.93143 3.66797 5.36603L0.817037 8.25172C0.817037 8.25172 0.417211 8.61678 0.712734 8.68632L1.86006 8.66894C1.86006 8.66894 2.67709 8.65155 2.3468 9.69457L0.365059 15.4138H0L2.0339 9.59027C2.0339 9.59027 2.17297 8.99922 1.77314 9.03399L0.677967 9.05138C0.121688 9.05138 0.104305 8.44295 0.469363 8.09528L3.54628 4.98358C3.75489 4.74021 4.13733 4.70545 4.3807 4.93143C4.50239 5.03574 4.57192 5.19219 4.58931 5.36603C4.69361 6.28737 5.11082 9.86841 5.11082 9.86841C5.18035 10.1465 5.00652 10.4247 4.72838 10.4768C4.53716 10.5116 4.32855 10.4421 4.20686 10.2856L3.58105 9.78149C3.58105 9.78149 3.19861 9.36428 3.02477 9.90318L1.09518 15.4312H0.730119L2.71186 9.64242ZM11.1256 8.58202C10.8996 8.80801 10.691 9.06876 10.4998 9.32952C9.68274 10.4942 9.64797 11.7285 10.465 12.2674C11.2125 12.7541 12.4989 12.25 13.3159 11.2591C14.1677 10.1987 14.3068 8.61678 13.4724 8.07789C12.777 7.62591 11.9079 7.86928 11.1256 8.58202ZM9.09169 1.15916H13.455L11.8383 5.83539C17.2099 2.65417 19.9044 6.98271 17.5402 11.3634C14.5502 17.4303 8.90047 15.9875 8.63972 14.2839L8.17035 15.4138H4.08518L9.09169 1.15916ZM29.8479 5.29649H25.7801L23.3811 12.024C22.1816 15.8136 26.0061 17.0827 29.6566 14.4577L29.4133 15.4138H33.2898L36.8709 5.31388H32.7162L30.5954 11.0853C30.1086 12.4934 27.3446 13.293 27.7618 11.12L29.8479 5.29649ZM55.6801 1.64591H55.6453V1.28085H56.1494C56.3754 1.35039 56.2711 1.64591 56.1147 1.64591H55.6801V1.76759H55.9756C56.3407 1.81974 56.1668 2.16742 56.2537 2.27173H56.3754C56.2711 2.13266 56.445 1.87189 56.219 1.73282C56.3754 1.66329 56.445 1.48946 56.3754 1.31562C56.3407 1.21132 56.219 1.14178 56.0973 1.12439H55.5062V2.23696H55.6279V1.75021H55.6801V1.64591ZM54.8804 1.36777C55.0195 0.915793 55.4367 0.602881 55.9061 0.602881C56.4971 0.602881 56.9839 1.08963 56.9839 1.68067C56.9839 2.27172 56.4971 2.75847 55.9061 2.75847C55.315 2.75847 54.8283 2.27172 54.8283 1.68067C54.8283 1.55899 54.8283 1.47207 54.8804 1.36777L54.7587 1.31562C54.5675 1.95882 54.9152 2.63678 55.5584 2.828C55.6627 2.86276 55.7844 2.88016 55.9235 2.88016C56.6014 2.88016 57.1403 2.32388 57.1403 1.6633C57.1403 0.98533 56.584 0.446434 55.9235 0.446434C55.3846 0.446434 54.9152 0.794102 54.7761 1.29823L54.8804 1.36777ZM34.2633 15.4138H38.5745L40.817 9.1383C41.7036 7.62591 43.5115 7.97358 43.1812 9.29475L41.0082 15.4138H45.5106L47.6488 9.43381C48.2051 7.93881 50.5693 7.83451 50.0478 9.60765L48.0312 15.4138H52.3772L54.7935 8.54725C55.6105 6.21783 52.7422 3.07138 47.8226 6.53074C47.249 4.9662 44.8153 3.97532 41.5819 6.25259L41.8079 5.31388H37.7748L34.2633 15.4138ZM16.8796 15.4138H21.2255L26.2668 1.19393H21.9035L16.8796 15.4138Z" fill="#959EAD"/>
</svg>
