<svg
	width="83"
	height="22"
	viewBox="0 0 83 22"
	fill="none"
	xmlns="http://www.w3.org/2000/svg"
>
	<path
		fill-rule="evenodd"
		clip-rule="evenodd"
		d="M20.7286 21.472C20.1162 21.0638 19.5946 20.6329 19.2998 20.2247C40.0285 18.0702 60.7344 16.0064 80.8961 19.567C81.4177 19.8618 81.7806 20.2701 82.0981 20.701C63.1157 17.5486 42.183 18.9547 20.7286 21.472Z"
		fill="#959EAD"
	/>
	<path
		fill-rule="evenodd"
		clip-rule="evenodd"
		d="M1.22467 5.25657C0.589656 4.84835 0.22679 4.4628 0 4.07726C17.5309 7.29769 38.8946 5.89158 61.3015 3.23814C61.9592 3.57832 62.4581 4.05458 62.889 4.62156C42.0016 6.9575 21.2049 8.83986 1.22467 5.25657Z"
		fill="#959EAD"
	/>
	<path
		fill-rule="evenodd"
		clip-rule="evenodd"
		d="M51.7536 9.9964H52.4793V8.61298H54.2483V9.9964H56.0853V10.9943H54.2483V13.1034C54.4524 14.1013 55.4049 13.8972 56.0853 13.7838C56.0853 14.1013 56.0853 14.3961 56.0853 14.7136C54.9513 14.8951 52.7061 15.2126 52.4793 13.3302V10.9943H51.7536V9.9964ZM47.2858 10.0191H49.0547V10.7448C49.6898 10.3593 50.4155 9.88301 51.2319 10.0191C51.2319 10.45 51.2319 10.8582 51.2319 11.2891C50.4835 11.2438 49.5764 11.1984 49.0547 11.7654V14.7363H47.2858V10.0191ZM44.0427 12.5365C43.3396 12.4911 42.0923 12.5818 42.0923 13.2849C42.0923 14.0786 43.453 14.056 44.0427 13.6024V12.5365ZM40.7996 10.0644C43.2262 9.67889 45.6302 9.65622 45.8116 11.4252V14.759H44.0427V14.3281C43.5891 14.5776 43.1582 14.759 42.7046 14.8497C41.5707 15.0765 40.1646 14.5776 40.3233 13.2395C40.414 12.4231 41.3212 11.9922 42.183 11.8334C42.7046 11.7427 43.317 11.6973 44.0427 11.72V11.4479C43.6118 10.4273 41.5026 11.0396 40.7996 11.2438C40.7996 10.8582 40.7996 10.4273 40.7996 10.0644ZM30.0044 9.9964H31.7733V10.4953C33.066 9.72426 34.2453 9.5655 35.2659 10.6541C35.9916 10.2005 36.672 9.88301 37.239 9.90569C37.942 9.90569 38.7811 10.2005 38.9626 11.1304V14.759H37.1936V11.7654C37.1936 10.9716 36.2184 10.8582 35.2886 11.4025V14.759H33.5196V11.5159C33.0887 10.8128 32.4537 10.9943 31.7506 11.3798V14.759H29.9817V9.9964H30.0044ZM26.6932 12.5365C25.9902 12.4911 24.7428 12.5818 24.7428 13.2849C24.7428 14.0786 26.1036 14.056 26.6932 13.6024V12.5365ZM23.4501 10.0644C25.8768 9.67889 28.2807 9.65622 28.4622 11.4252V14.759H26.6932V14.3281C26.2396 14.5776 25.8087 14.759 25.3552 14.8497C24.2212 15.0765 22.8151 14.5776 22.9739 13.2395C23.0646 12.4231 23.9717 11.9922 24.8335 11.8334C25.3552 11.7427 25.9675 11.6973 26.6932 11.72V11.4479C26.2623 10.4273 24.1532 11.0396 23.4501 11.2438C23.4501 10.8582 23.4501 10.4273 23.4501 10.0644ZM21.4997 12.1736H14.3105V0.947464H9.97876V14.759H12.1333H14.2878H21.477V12.1736H21.4997ZM56.6296 9.9964H58.5346L59.8273 13.0354L59.8727 12.922L61.052 9.9964H62.8436L57.5821 21.6081H55.8358L59.0109 14.759L56.6296 9.9964Z"
		fill="#959EAD"
	/>
</svg>
