<svg width="98" height="17" viewBox="0 0 98 17" fill="none" xmlns="http://www.w3.org/2000/svg">
<path fill-rule="evenodd" clip-rule="evenodd" d="M7.10291 12.3727V0.452581C7.07833 0.452581 7.10291 0.427998 7.07834 0.477153L6.75883 0.944133C6.73425 0.96871 6.73425 0.993285 6.70967 1.01786C6.68509 1.04244 6.39016 1.50941 6.34101 1.58314L5.0384 3.57393C5.01382 3.5985 4.98924 3.64766 4.96466 3.67223L3.34255 6.15457C3.1705 6.42492 2.94931 6.74443 2.77726 7.01478C2.75268 7.06394 2.72811 7.08852 2.70353 7.11309C2.77726 7.11309 2.82642 7.11309 2.90015 7.11309C2.97388 7.11309 3.02304 7.11309 3.09677 7.11309C3.14593 7.11309 3.21966 7.11309 3.29339 7.11309C3.36712 7.11309 3.41628 7.11309 3.49001 7.11309L2.4086 8.75979C2.31029 8.93183 2.08909 9.22677 1.9662 9.42339C1.89247 9.54628 1.81874 9.64458 1.74501 9.76747C1.54839 10.087 1.2043 10.6031 0.983102 10.9226C0.933947 10.9718 0.909369 11.0209 0.884792 11.0947L0.172042 12.1761C0.147465 12.2006 0.147465 12.2252 0.122888 12.2498C0.0737327 12.299 0.0491551 12.3727 0 12.4218H6.85714C6.88171 12.4218 6.93087 12.4218 6.95545 12.4218L7.10291 12.3727Z" fill="#959EAD"/>
<path fill-rule="evenodd" clip-rule="evenodd" d="M11.0108 2.7383C11.06 2.81204 11.3549 3.30359 11.3549 3.35274L11.7973 3.37732C11.9694 3.4019 12.0185 3.40189 12.2151 3.42647L12.7313 3.52479C12.9525 3.57394 13.2228 3.67225 13.444 3.74598C14.0585 3.99176 14.5009 4.26211 14.9924 4.65535L15.3119 4.95028C15.4348 5.04859 15.7297 5.3681 15.828 5.51556C16.0492 5.78592 16.2213 6.0317 16.3933 6.35121C16.4179 6.37578 16.4179 6.40036 16.4425 6.44952C16.4671 6.49867 16.4671 6.49867 16.4916 6.54782C16.6391 6.84275 16.762 7.11311 16.8603 7.43262L16.934 7.65381C16.934 7.70297 17.0323 8.12078 17.0569 8.21909C17.0815 8.3174 17.0815 8.41572 17.1061 8.51403C17.1307 8.61234 17.1307 8.73522 17.1307 8.83353C17.1307 8.88269 17.1307 8.93184 17.1307 8.981C17.1552 9.07931 17.1307 9.39882 17.1307 9.47255C17.1307 9.52171 17.1307 9.57086 17.1307 9.62002C17.1061 9.76748 17.1061 9.93952 17.0815 10.087C17.0078 10.554 16.8849 10.9718 16.7128 11.4142C16.6883 11.4633 16.6883 11.4879 16.6637 11.5371C16.4671 11.9795 16.2213 12.4464 15.9018 12.8151C15.7789 12.9626 15.656 13.1346 15.5085 13.2821L15.2628 13.5278C15.017 13.7736 14.5009 14.1423 14.1813 14.3143C14.1076 14.3635 14.0339 14.3881 13.9601 14.4372C13.0754 14.8796 12.2397 15.0762 11.232 15.0762C10.1506 15.0762 9.33957 14.8059 8.52851 14.3881C8.38104 14.3143 8.23358 14.216 8.08611 14.1423C7.91407 14.044 7.64372 13.8474 7.49625 13.6999L7.39794 13.6262C7.27505 13.5278 7.15216 13.405 7.05385 13.3067C7.0047 13.2575 7.02928 13.2575 6.93097 13.2575C6.70977 13.2575 6.48857 13.2821 6.26737 13.2821C5.82498 13.2821 5.38258 13.3067 4.94019 13.3067C5.06307 13.5524 5.40716 13.9702 5.60378 14.1914L5.75124 14.3635C5.84955 14.4618 5.94786 14.5847 6.07075 14.683C6.09533 14.7076 6.11991 14.7321 6.14449 14.7567C6.16906 14.7813 6.16906 14.7813 6.19364 14.8059C6.21822 14.8305 6.21822 14.8305 6.24279 14.8305C6.26737 14.855 6.26737 14.855 6.29195 14.8796C6.31653 14.9042 6.31653 14.9042 6.34111 14.9042C6.36568 14.9288 6.36568 14.9288 6.39026 14.9534C6.61146 15.1254 6.83266 15.2974 7.05385 15.4695L7.54541 15.7644L8.38104 16.1822C8.60224 16.2805 8.84802 16.3543 9.06921 16.428C9.46245 16.5509 9.954 16.6492 10.3472 16.6984L10.9125 16.7475C10.9617 16.7475 11.0108 16.7475 11.06 16.7475C11.1092 16.7475 11.1337 16.7475 11.2075 16.7475C11.5024 16.7475 11.7973 16.7229 12.0923 16.6984C13.0754 16.6 13.8618 16.3297 14.7466 15.9119C14.9433 15.8136 15.1399 15.6907 15.3365 15.5678L15.6068 15.3712C15.6314 15.3466 15.656 15.322 15.7052 15.2974L16.2213 14.8796C16.2459 14.855 16.2704 14.8305 16.295 14.8059C16.4425 14.7076 16.762 14.3635 16.8849 14.216L17.2781 13.749C17.3273 13.6753 17.7451 13.11 17.7697 12.9871C17.7942 12.9871 17.7697 12.9871 17.7942 12.9871C17.7942 12.9871 17.7942 12.9626 17.8188 12.9626C17.8188 12.938 17.8434 12.938 17.8434 12.9134C17.9417 12.7168 18.0154 12.5939 18.1138 12.3727L18.2366 12.1024C18.3104 11.9057 18.3841 11.7091 18.4578 11.5125C18.4824 11.4142 18.5316 11.3159 18.5562 11.193C18.6053 11.0209 18.679 10.726 18.7036 10.5294C18.7528 10.2099 18.8265 9.79206 18.8265 9.44797C18.8265 9.39882 18.8265 9.30051 18.8265 9.25136C18.8265 9.17762 18.8265 9.15305 18.8265 9.05474C18.8265 8.78438 18.8019 8.53861 18.7773 8.29283C18.7528 8.12079 18.7282 7.94874 18.7036 7.7767C18.7036 7.72755 18.679 7.65381 18.679 7.60466C18.6545 7.5555 18.6545 7.48177 18.6299 7.43262L18.4824 6.91649C18.3841 6.5724 18.1875 6.13001 18.04 5.8105C17.8434 5.39268 17.5485 4.95028 17.2781 4.58162L17.0323 4.28669C17.0078 4.26211 17.0078 4.26211 16.9832 4.21296L16.762 3.99176C16.7374 3.96718 16.7374 3.96718 16.7128 3.9426L16.6145 3.81971C16.5899 3.79514 16.5654 3.79514 16.5408 3.77056C16.4916 3.72141 16.4671 3.69683 16.4179 3.64768L16.1721 3.45105C16.0984 3.37732 16.0247 3.30359 15.9264 3.25443C15.7297 3.10697 15.2382 2.76288 14.9924 2.63999C14.9433 2.61542 14.8941 2.59083 14.8449 2.56626C14.7466 2.5171 14.6483 2.46795 14.55 2.4188L14.4025 2.34506C13.8127 2.05013 12.805 1.77978 12.1414 1.70604C12.0185 1.70604 11.8711 1.68147 11.7482 1.65689H11.3058C11.232 1.65689 11.1583 1.65689 11.0846 1.65689C10.888 1.65689 10.593 1.70604 10.4456 1.70604C10.4456 1.7552 10.4701 1.77978 10.4947 1.80436C10.6422 2.09929 10.8634 2.44337 11.0108 2.7383ZM8.38104 1.01787V12.4464H14.7958C14.7712 12.3727 13.9601 10.8489 13.9356 10.7997H10.0523V3.84429C10.0523 3.72141 10.0523 3.6231 10.0523 3.50021C10.0523 3.4019 10.0277 3.37732 9.95401 3.25443C9.65908 2.7383 9.33957 2.19759 9.06921 1.70604C8.94633 1.48484 8.79886 1.23907 8.67597 1.04245C8.62682 0.944143 8.40562 0.52632 8.35647 0.477165V1.01787H8.38104Z" fill="#959EAD"/>
<path fill-rule="evenodd" clip-rule="evenodd" d="M93.3948 7.50626V6.12991C94.3288 6.12991 94.3042 6.20365 94.3042 6.96555C94.3042 7.35879 94.2059 7.50626 93.7635 7.50626H93.3948ZM93.3948 10.2589V8.51394C94.4517 8.51394 94.3042 8.58767 94.3042 9.79197C94.3042 9.98859 94.2551 10.1361 94.1076 10.2098C94.0093 10.2589 93.7389 10.2835 93.5915 10.2835H93.3948V10.2589ZM90.5193 5.02392V11.3649H94.0339C94.4025 11.3649 94.7466 11.3649 95.1153 11.3404C95.3611 11.3404 95.8772 11.2912 96.123 11.242C96.4425 11.1683 96.6882 11.0946 96.8849 10.898C97.0569 10.7505 97.2044 10.4556 97.2044 10.1361V9.05465C97.2044 8.46478 96.6391 8.16985 96.1475 8.04696C96.0492 8.02239 95.9755 7.99781 95.8526 7.97323C95.7543 7.94865 95.656 7.92408 95.5331 7.92408V7.8995C95.9018 7.8995 96.6637 7.72746 96.8357 7.40795C97.0323 7.06386 96.9832 6.44942 96.8603 6.08076C96.6882 5.58921 96.2213 5.34343 95.7297 5.17139C95.2627 5.02392 94.4271 4.99935 93.8864 4.99935C93.7635 4.99935 93.6898 4.97477 93.5669 4.97477L90.5193 5.02392ZM84.719 5.02392V11.3649H89.7328V10.0869H87.5946V8.71055H89.3887V7.48168H87.5946V6.30196H89.5116V5.02392H84.719ZM80.5654 7.70288V6.10534C80.7866 6.10534 81.0569 6.10534 81.2535 6.17907C81.401 6.22822 81.4747 6.37569 81.4747 6.57231V7.2359C81.4747 7.60456 81.229 7.72745 80.8849 7.72745L80.5654 7.70288ZM77.6898 5.14681C77.7144 6.10533 77.6898 7.18675 77.6898 8.14527C77.6898 9.20211 77.6898 10.2835 77.6898 11.3404H80.5654V8.78429C81.4256 8.78429 83.2197 8.85802 83.7113 8.14527C83.9571 7.77661 83.9079 7.11301 83.9079 6.64604C83.9079 5.83498 83.6376 5.41717 82.8511 5.19597C82.507 5.09766 82.1629 5.0485 81.7697 5.02392C80.5408 4.95019 78.9924 4.99935 77.739 4.99935C77.6652 5.02393 77.6898 5.07308 77.6898 5.14681ZM72.2827 8.29274C72.4056 7.70288 72.4794 7.01471 72.4794 6.30196H73.315V10.0377H71.8158L72.0615 9.20211C72.1353 8.90717 72.209 8.58767 72.2827 8.29274ZM69.825 5.76125C69.825 6.10533 69.7512 6.81809 69.7021 7.16217C69.6284 7.72746 69.4563 8.48936 69.2597 9.00549C69.2105 9.12838 68.8665 10.0132 68.7436 10.0132H68.2029V12.4463H70.1936V11.3649H74.8388V12.4463H76.8542V10.0132H76.2643V5.02392H69.8741C69.825 5.29427 69.825 5.49089 69.825 5.76125ZM60.8788 6.05618C60.7559 6.35111 60.7313 6.96555 60.7313 7.38337V9.00549C60.7313 9.47246 60.7804 9.96401 60.9033 10.3081C61.0508 10.6768 61.272 10.8734 61.6161 11.0454C62.6975 11.5861 64.9095 11.6107 66.0892 11.242C66.3841 11.1437 66.8265 10.9225 67.0477 10.7505C67.5638 10.3081 67.5639 9.49704 67.5639 8.80887H64.6637C64.6637 9.07922 64.7128 10.1606 64.5654 10.3081C64.3933 10.4556 63.9509 10.4556 63.8035 10.3573C63.7297 10.3081 63.7052 10.2344 63.6806 10.1361C63.6314 9.93944 63.6314 9.69366 63.6314 9.47246V6.99013C63.6314 6.79351 63.6314 6.17907 63.8035 6.05618C63.9509 5.95787 64.5162 5.90871 64.6145 6.15449C64.7129 6.37569 64.6637 7.48168 64.6637 7.77661H67.5639C67.5639 7.18675 67.5884 6.44942 67.3426 5.95787C66.8757 5.0485 65.0078 4.85188 64.123 4.85188C63.6314 4.85188 63.189 4.90104 62.7712 4.97477C62.3288 5.0485 61.5178 5.31886 61.2228 5.61379C61.0754 5.78583 60.9525 5.88414 60.8788 6.05618ZM55.0293 5.02392V11.3649H60.0185V10.0869H57.9049V8.71055H59.699V7.48168H57.9049V6.30196H59.8219V5.02392H55.0293ZM47.2628 5.02392V9.64451C47.2628 9.8657 47.2628 10.1115 47.0416 10.1852C46.845 10.2589 46.5992 10.2589 46.3288 10.2589V11.3649H47.4348C47.6069 11.3404 47.8035 11.3649 47.9755 11.3404C48.5654 11.2912 49.7451 11.3404 50.0401 10.6276C50.1629 10.3327 50.1875 10.0869 50.1875 9.66909V6.30196H50.9986V11.3649H53.8741V6.67062V5.02392C53.8496 4.99934 53.8741 5.02393 53.8496 4.99935L47.2628 5.02392ZM36.8173 5.02392V11.3649H39.3488V7.38337V7.30964C39.3734 7.26048 39.3242 7.28506 39.3734 7.26048C39.3488 7.33421 39.4471 7.6783 39.4717 7.77661L40.3811 11.3649H42.1752C42.1752 11.2175 42.9863 7.94865 43.0846 7.40795C43.1092 7.30964 43.1338 7.21133 43.1338 7.13759L43.1583 11.3649H45.6898V5.02392H41.9295L41.61 6.474C41.5854 6.59689 41.2904 7.82577 41.2904 7.92408H41.2659C41.2659 7.82577 41.2167 7.65373 41.1921 7.57999C41.1676 7.45711 41.143 7.35879 41.0938 7.2359L40.5285 5.02392H36.8173ZM32.0001 10.1606C31.9756 10.0132 31.951 9.76739 31.951 9.59535V6.64604C31.951 6.42484 31.951 6.10533 32.1476 6.00702C32.2951 5.93329 32.7129 5.88414 32.8112 6.12991C32.8603 6.22822 32.8603 6.44943 32.8603 6.59689V9.61993C32.8603 10.0377 32.8603 10.431 32.4671 10.431C32.3196 10.431 32.2459 10.431 32.123 10.3818C32.0493 10.3081 32.0247 10.2589 32.0001 10.1606ZM29.1 6.81809L29.0754 7.57999C29.0754 8.07154 29.0262 9.71824 29.1983 10.2589C29.2966 10.5785 29.6407 10.8734 29.911 11.0209C30.2551 11.2175 30.5501 11.2912 30.9924 11.3895C32.0984 11.6353 34.0155 11.537 34.8757 11.0209C35.2444 10.7997 35.6376 10.4556 35.6622 9.98859C35.6622 9.89028 35.6868 9.74282 35.6868 9.64451C35.7359 9.30042 35.7113 7.77661 35.7113 7.45711C35.7113 7.06386 35.6868 6.42484 35.5885 6.12991C35.3673 5.49089 34.4087 5.12223 33.7697 5.02392C32.5408 4.80272 31.017 4.8273 29.9356 5.39258C29.8619 5.44174 29.7881 5.4909 29.7144 5.54005L29.4195 5.81041C29.2474 5.98245 29.1491 6.22823 29.1491 6.474C29.1246 6.54774 29.1 6.71978 29.1 6.81809ZM28.5101 5.02392H22.2674C22.2183 5.02392 22.2183 5.02392 22.2183 5.07308V6.2528C22.2183 6.30195 22.2183 6.30196 22.2674 6.30196H23.9141V11.3649H26.8143V6.30196H28.5101V5.02392Z" fill="#959EAD"/>
</svg>
