<svg width="44" height="26" viewBox="0 0 44 26" fill="none" xmlns="http://www.w3.org/2000/svg">
<path fill-rule="evenodd" clip-rule="evenodd" d="M0 10.3514H20.0268C19.9161 10.0932 19.8055 9.83507 19.658 9.59534H0V10.3514Z" fill="#959EAD"/>
<path fill-rule="evenodd" clip-rule="evenodd" d="M13.4434 5.33543H3.37468L0 9.18958H19.4736C18.238 7.06887 16.0251 5.57517 13.4434 5.33543Z" fill="#959EAD"/>
<path fill-rule="evenodd" clip-rule="evenodd" d="M0 11.5316H20.3772C20.3218 11.2734 20.2481 11.0337 20.1559 10.7755H0V11.5316Z" fill="#959EAD"/>
<path fill-rule="evenodd" clip-rule="evenodd" d="M0 12.7119H20.5247C20.5063 12.4537 20.4694 12.214 20.4325 11.9558H0V12.7119Z" fill="#959EAD"/>
<path fill-rule="evenodd" clip-rule="evenodd" d="M12.7244 0.448608C19.7319 0.448608 25.4117 6.1284 25.4301 13.1359H20.9859C20.9859 8.58104 17.2793 4.87442 12.7244 4.87442V0.448608Z" fill="#959EAD"/>
<path fill-rule="evenodd" clip-rule="evenodd" d="M0 13.1728V13.1359H4.44425C4.44425 17.6908 8.15087 21.3974 12.7058 21.3974V25.8785C5.69823 25.8785 0 20.1803 0 13.1728Z" fill="#959EAD"/>
<path d="M40.4039 18.3547L39.6847 15.9205L39.0024 18.3547H40.4039ZM38.3201 20.6598H36.1441L38.5783 13.8552H40.8465L43.2807 20.6598H41.0678L40.8096 19.7562H38.5967L38.3201 20.6598ZM32.8801 16.9532H33.8021C34.0787 16.9532 34.3 16.8979 34.4475 16.7873C34.6135 16.6582 34.7057 16.4553 34.7057 16.1603C34.7057 15.8837 34.5582 15.6808 34.2816 15.5702C34.0787 15.4964 33.8205 15.4411 33.507 15.4411H32.8801V16.9532ZM32.8801 20.6598H30.6487V13.8552H33.9312C34.8901 13.8552 35.6093 14.058 36.1072 14.4822C36.5867 14.8694 36.8264 15.4411 36.8264 16.1603C36.8264 16.9163 36.6051 17.5065 36.1625 17.9122C35.6831 18.3363 34.9823 18.5576 34.005 18.5576H32.8801V20.6598ZM26.6286 20.6598H24.4157V13.8552H29.948V15.4411H26.6286V20.6598ZM20.1374 15.3489C19.6764 15.3489 19.326 15.5517 19.1047 15.9574C18.9203 16.2894 18.8281 16.7135 18.8281 17.2298C18.8281 17.7646 18.9203 18.1888 19.0863 18.5391C19.3076 18.9817 19.6764 19.1846 20.1559 19.1846C20.58 19.1846 20.8935 19.0002 21.1332 18.6498C21.373 18.281 21.4836 17.8199 21.4836 17.2298C21.4836 16.7135 21.373 16.2894 21.1701 15.939C20.9488 15.5517 20.5984 15.3489 20.1374 15.3489ZM15.6378 18.1334V20.6783H13.4065V13.8736H15.6378V16.2525H16.7074C16.8918 15.4595 17.2791 14.8141 17.9061 14.3531C18.5146 13.892 19.2707 13.6523 20.1743 13.6523C21.3176 13.6523 22.2212 14.0211 22.8667 14.7403C23.4568 15.3858 23.7518 16.2156 23.7518 17.193C23.7518 18.3179 23.4014 19.203 22.7191 19.8669C22.0737 20.4939 21.2254 20.8074 20.1743 20.8074C19.2707 20.8074 18.4962 20.5676 17.8876 20.1066C17.2791 19.6272 16.8734 18.9633 16.7074 18.0966H15.6378V18.1334Z" fill="#959EAD"/>
<path d="M28.6203 22.5777V21.3975H32.8802V22.5777H31.5155V25.8786H30.0034V22.5777H28.6203ZM25.1903 23.7764L26.7762 21.4159H28.1962V25.8971H26.7394L26.7209 23.5551L25.135 25.8971H23.7151V21.4159H25.1719L25.1903 23.7764ZM19.99 25.8786H18.5516L20.1744 21.3975H21.6681L23.2909 25.8786H21.8156C21.5022 24.8644 21.2255 23.8686 20.912 22.8359C20.5985 23.8501 20.2851 24.8644 19.99 25.8786ZM18.109 21.3975V25.8786H16.5969V22.633H14.9372V25.8786H13.425V21.3975H18.109Z" fill="#959EAD"/>
</svg>
