<svg
	width="12"
	height="12"
	viewBox="0 0 12 12"
	fill="none"
	xmlns="http://www.w3.org/2000/svg"
>
	<path
		d="M10.2093 2.43137H9.37835L8.33661 0.368139C8.30477 0.292221 8.25752 0.223638 8.19779 0.166677C8.13806 0.109717 8.06715 0.0656022 7.98948 0.0370909C7.91181 0.00857958 7.82905 -0.00371592 7.74638 0.000972826C7.66371 0.00566157 7.5829 0.0272338 7.509 0.0643414C7.43511 0.101449 7.36971 0.153294 7.3169 0.216638C7.26409 0.279981 7.225 0.35346 7.20208 0.432485C7.17916 0.511509 7.17289 0.59438 7.18368 0.675918C7.19446 0.757456 7.22206 0.835908 7.26475 0.906374L8.0295 2.43137H3.95886L4.72361 0.906374C4.78206 0.766975 4.78525 0.610777 4.73254 0.46914C4.67983 0.327503 4.57512 0.210913 4.43943 0.142778C4.30374 0.0746432 4.14713 0.0600072 4.00102 0.101809C3.85492 0.14361 3.73015 0.238754 3.65176 0.368139L2.61001 2.43137H1.77903C1.35341 2.4378 0.943749 2.59329 0.622297 2.87041C0.300845 3.14753 0.0882511 3.52849 0.022011 3.94609C-0.0442291 4.36368 0.0401395 4.7911 0.260237 5.15295C0.480334 5.5148 0.822021 5.78784 1.22503 5.92391L1.67064 10.3853C1.71557 10.8294 1.92556 11.2409 2.2596 11.5394C2.59364 11.838 3.02774 12.0022 3.47713 12H8.52328C8.97267 12.0022 9.40677 11.838 9.74081 11.5394C10.0748 11.2409 10.2848 10.8294 10.3298 10.3853L10.7754 5.92391C11.1793 5.78744 11.5215 5.5134 11.7414 5.15034C11.9614 4.78728 12.0448 4.35863 11.977 3.94031C11.9092 3.52199 11.6946 3.14099 11.371 2.86481C11.0475 2.58863 10.636 2.43509 10.2093 2.43137ZM9.11942 10.2657C9.10444 10.4137 9.03445 10.5509 8.9231 10.6504C8.81175 10.7499 8.66705 10.8046 8.51726 10.8039H3.47111C3.32131 10.8046 3.17661 10.7499 3.06527 10.6504C2.95392 10.5509 2.88392 10.4137 2.86895 10.2657L2.44141 6.0196H9.54696L9.11942 10.2657ZM10.2093 4.82352H1.77903C1.61932 4.82352 1.46616 4.76051 1.35323 4.64836C1.2403 4.53621 1.17686 4.38409 1.17686 4.22548C1.17686 4.06687 1.2403 3.91476 1.35323 3.80261C1.46616 3.69045 1.61932 3.62745 1.77903 3.62745H10.2093C10.369 3.62745 10.5222 3.69045 10.6351 3.80261C10.7481 3.91476 10.8115 4.06687 10.8115 4.22548C10.8115 4.38409 10.7481 4.53621 10.6351 4.64836C10.5222 4.76051 10.369 4.82352 10.2093 4.82352Z"
		fill="white"
	/>
</svg>
