<svg
	width="13"
	height="11"
	viewBox="0 0 13 11"
	fill="none"
	xmlns="http://www.w3.org/2000/svg"
>
	<path
		d="M10.875 0.5H2.125C1.62772 0.5 1.15081 0.697544 0.799175 1.04917C0.447544 1.40081 0.25 1.87772 0.25 2.375V8.625C0.25 9.12228 0.447544 9.59919 0.799175 9.95083C1.15081 10.3025 1.62772 10.5 2.125 10.5H10.875C11.3723 10.5 11.8492 10.3025 12.2008 9.95083C12.5525 9.59919 12.75 9.12228 12.75 8.625V2.375C12.75 1.87772 12.5525 1.40081 12.2008 1.04917C11.8492 0.697544 11.3723 0.5 10.875 0.5V0.5ZM2.125 1.75H10.875C11.0408 1.75 11.1997 1.81585 11.3169 1.93306C11.4342 2.05027 11.5 2.20924 11.5 2.375L6.5 5.425L1.5 2.375C1.5 2.20924 1.56585 2.05027 1.68306 1.93306C1.80027 1.81585 1.95924 1.75 2.125 1.75V1.75ZM11.5 8.625C11.5 8.79076 11.4342 8.94973 11.3169 9.06694C11.1997 9.18415 11.0408 9.25 10.875 9.25H2.125C1.95924 9.25 1.80027 9.18415 1.68306 9.06694C1.56585 8.94973 1.5 8.79076 1.5 8.625V3.8L6.175 6.65625C6.27001 6.71111 6.37779 6.73998 6.4875 6.73998C6.59721 6.73998 6.70499 6.71111 6.8 6.65625L11.5 3.8V8.625Z"
		fill="white"
	/>
</svg>
