<svg
	width="191"
	height="174"
	viewBox="0 0 191 174"
	fill="none"
	xmlns="http://www.w3.org/2000/svg"
>
	<path
		d="M101.281 145.541L107.865 141.399C112.562 134.52 102.65 123.276 96.1774 125.421L90.6295 128.898"
		stroke="#959EAD"
		stroke-miterlimit="22.9256"
	/>
	<path
		d="M90.6664 128.897L82.2706 129.193L73.5419 134.704"
		stroke="#959EAD"
		stroke-miterlimit="22.9256"
	/>
	<path
		d="M87.4857 159.078L97.398 152.901L101.281 145.541"
		stroke="#959EAD"
		stroke-miterlimit="22.9256"
	/>
	<path
		d="M93.3296 127.196C94.846 123.313 99.9501 123.72 102.872 124.46C106.903 125.495 113.598 128.898 114.375 136.776C114.892 141.88 110.565 144.358 106.829 142.065"
		stroke="#959EAD"
		stroke-miterlimit="22.9256"
	/>
	<path
		d="M90.6665 128.898C97.3979 128.084 104.684 138.736 101.281 145.541"
		stroke="#959EAD"
		stroke-miterlimit="22.9256"
	/>
	<path
		d="M82.2706 129.193C93.3294 128.897 102.65 141.399 97.3979 152.864"
		stroke="#959EAD"
		stroke-miterlimit="22.9256"
	/>
	<path
		d="M64.3324 133.484C72.8022 133.484 82.0117 142.434 84.9706 153.493C87.8925 164.552 83.4172 173.503 74.9474 173.503C66.4776 173.503 57.2681 164.552 54.3092 153.493C53.2366 149.462 53.1627 145.689 53.9024 142.545L62.2982 137.293L64.3324 133.484Z"
		stroke="#959EAD"
		stroke-miterlimit="22.9256"
	/>
	<path
		d="M64.7762 132.522C65.1461 132.485 65.516 132.448 65.8488 132.448C74.3186 132.448 83.5281 141.399 86.487 152.457C89.4089 163.516 85.8582 172.208 76.6487 173.317"
		stroke="#959EAD"
		stroke-miterlimit="22.9256"
	/>
	<path
		d="M75.2871 163.9C79.1453 161.802 79.7332 155.431 76.6002 149.671C73.4673 143.91 67.7999 140.942 63.9417 143.04C60.0836 145.139 59.4957 151.509 62.6286 157.27C65.7615 163.03 71.4289 165.998 75.2871 163.9Z"
		stroke="#959EAD"
		stroke-miterlimit="22.9256"
	/>
	<path
		d="M68.6598 142.656L62.853 146.318L63.7037 155.379L72.7283 163.405L78.2392 159.966"
		stroke="#959EAD"
		stroke-miterlimit="22.9256"
	/>
	<path
		d="M69.6584 142.99L70.5461 151.792L78.5351 158.524"
		stroke="#959EAD"
		stroke-miterlimit="22.9256"
	/>
	<path
		d="M97.5089 123.978C98.3596 120.058 100.986 118.098 103.871 117.543C113.302 115.694 119.885 124.015 121.069 132.633C121.698 137.33 119.405 139.623 114.338 139.623"
		stroke="#959EAD"
		stroke-miterlimit="22.9256"
	/>
	<path
		d="M98.6184 124.015C98.9883 123.682 99.765 123.164 100.209 122.942C102.428 121.907 105.239 121.87 107.569 122.388C112.821 123.571 118.406 132.411 115.928 136.331C115.706 136.479 114.633 137.256 114.411 137.404"
		stroke="#959EAD"
		stroke-miterlimit="22.9256"
	/>
	<path
		d="M104.98 117.357C106.201 115.138 108.198 113.955 110.343 113.548C119.774 111.698 126.358 120.02 127.542 128.638C128.17 133.298 125.914 135.591 120.995 135.628"
		stroke="#959EAD"
		stroke-miterlimit="22.9256"
	/>
	<path
		d="M111.49 113.4C112.71 111.181 114.707 109.998 116.889 109.554C126.321 107.705 132.904 116.026 134.088 124.644C134.717 129.304 132.461 131.597 127.504 131.634"
		stroke="#959EAD"
		stroke-miterlimit="22.9256"
	/>
	<path
		d="M117.999 109.369C119.22 107.187 121.217 106.003 123.362 105.559C132.794 103.71 139.377 112.032 140.561 120.649C141.189 125.31 137.639 127.64 134.014 127.64"
		stroke="#959EAD"
		stroke-miterlimit="22.9256"
	/>
	<path
		d="M123.991 105.448C125.212 103.377 127.135 102.231 129.206 101.824C138.452 100.011 144.925 108.185 146.072 116.618C146.663 120.909 145.147 123.609 140.413 123.461"
		stroke="#959EAD"
		stroke-miterlimit="22.9256"
	/>
	<path
		d="M129.946 101.713C131.166 99.6414 133.089 98.4948 135.161 98.0879C144.407 96.2756 150.917 104.45 152.063 112.919C152.655 117.358 150.769 120.021 146.071 119.799"
		stroke="#959EAD"
		stroke-miterlimit="22.9256"
	/>
	<path
		d="M135.715 98.0144C136.936 96.0541 138.785 94.9815 140.782 94.6117C149.955 92.7994 156.354 100.936 157.5 109.295C158.092 113.512 156.686 116.507 152.063 116.064"
		stroke="#959EAD"
		stroke-miterlimit="22.9256"
	/>
	<path
		d="M141.337 94.5004C142.558 92.6881 144.407 91.3936 146.33 91.0237C155.466 89.2484 161.864 97.3113 162.974 105.633C163.566 109.887 161.679 112.069 157.463 112.365"
		stroke="#959EAD"
		stroke-miterlimit="22.9256"
	/>
	<path
		d="M147.107 90.8764C148.291 89.3229 149.918 88.4723 151.656 88.1394C160.681 86.3641 167.005 94.353 168.115 102.601C168.67 106.78 166.858 108.962 162.752 109.258"
		stroke="#959EAD"
		stroke-miterlimit="22.9256"
	/>
	<path
		d="M152.729 87.9535C153.875 86.4001 155.466 85.5124 157.204 85.1795C165.822 83.4782 171.851 91.0973 172.923 98.9753C173.441 102.822 171.814 104.893 168.152 105.3"
		stroke="#959EAD"
		stroke-miterlimit="22.9256"
	/>
	<path
		d="M157.426 85.106C158.536 83.1828 160.274 82.1472 162.16 81.7773C170.519 80.1499 176.363 87.5471 177.399 95.1662C177.916 98.8648 176.363 100.862 172.886 101.306"
		stroke="#959EAD"
		stroke-miterlimit="22.9256"
	/>
	<path
		d="M163.825 81.5555C164.786 80.335 166.118 79.6322 167.523 79.3733C174.884 77.9309 180.025 84.4404 180.949 91.1718C181.356 94.2417 180.209 95.98 177.547 96.4978"
		stroke="#959EAD"
		stroke-miterlimit="22.9256"
	/>
	<path
		d="M179.803 77.3022C180.21 77.1173 180.654 77.0063 181.171 77.0063C183.686 77.0063 186.46 79.7063 187.348 82.9981C188.051 85.6611 187.311 87.9172 185.721 88.6939"
		stroke="#959EAD"
		stroke-miterlimit="22.9256"
	/>
	<path
		d="M179.914 77.2278C176.437 79.1511 174.366 78.6702 171.592 79.373"
		stroke="#959EAD"
		stroke-miterlimit="22.9256"
	/>
	<path
		d="M185.795 88.6201C183.205 89.7667 182.207 91.653 180.949 93.2064"
		stroke="#959EAD"
		stroke-miterlimit="22.9256"
	/>
	<path
		d="M83.6763 85.4021L91.8132 80.298C97.583 71.8282 85.4146 57.9955 77.4257 60.6215L70.5833 64.9118"
		stroke="#959EAD"
		stroke-miterlimit="22.9256"
	/>
	<path
		d="M70.5831 64.9116L60.301 65.2815L49.5011 72.0499"
		stroke="#959EAD"
		stroke-miterlimit="22.9256"
	/>
	<path
		d="M66.6626 102.083L78.9049 94.4634L83.6761 85.4019"
		stroke="#959EAD"
		stroke-miterlimit="22.9256"
	/>
	<path
		d="M73.9117 62.8411C75.798 58.0699 82.0856 58.5507 85.6363 59.4754C90.6294 60.7329 98.8033 64.9493 99.8019 74.6396C100.431 80.8902 95.1047 83.9971 90.5184 81.1492"
		stroke="#959EAD"
		stroke-miterlimit="22.9256"
	/>
	<path
		d="M70.5833 64.9118C78.8681 63.9502 87.8557 77.0062 83.6763 85.4021"
		stroke="#959EAD"
		stroke-miterlimit="22.9256"
	/>
	<path
		d="M60.301 65.2814C73.9119 64.9116 85.3775 80.2977 78.905 94.4264"
		stroke="#959EAD"
		stroke-miterlimit="22.9256"
	/>
	<path
		d="M57.2762 118.312C65.8359 113.656 67.1416 99.5244 60.1926 86.7476C53.2435 73.9708 40.6712 67.3872 32.1114 72.0427C23.5517 76.6982 22.246 90.8298 29.1951 103.607C36.1441 116.383 48.7165 122.967 57.2762 118.312Z"
		stroke="#959EAD"
		stroke-miterlimit="22.9256"
	/>
	<path
		d="M30.4532 73.122C32.5984 70.533 37.0737 69.3125 40.0696 69.3125C50.4996 69.3125 61.8543 80.3343 65.479 93.9452C69.1036 107.556 64.7022 118.282 53.3845 119.65"
		stroke="#959EAD"
		stroke-miterlimit="22.9256"
	/>
	<path
		d="M51.6743 108.012C56.4118 105.435 57.127 97.6004 53.2719 90.5122C49.4167 83.4239 42.451 79.7665 37.7135 82.3432C32.9761 84.9198 32.2609 92.7547 36.116 99.843C39.9712 106.931 46.9369 110.589 51.6743 108.012Z"
		stroke="#959EAD"
		stroke-miterlimit="22.9256"
	/>
	<path
		d="M43.5094 81.8518L36.3341 86.3271L37.3697 97.4969L48.5025 107.409L55.3079 103.156"
		stroke="#959EAD"
		stroke-miterlimit="22.9256"
	/>
	<path
		d="M44.73 82.2581L45.8396 93.0949L55.6778 101.38"
		stroke="#959EAD"
		stroke-miterlimit="22.9256"
	/>
	<path
		d="M79.0159 58.8461C80.0515 54.0009 83.2693 51.5968 86.8199 50.8941C98.4335 48.6379 106.533 58.883 107.976 69.461C108.753 75.2678 105.942 78.0787 99.691 78.0787"
		stroke="#959EAD"
		stroke-miterlimit="22.9256"
	/>
	<path
		d="M80.3844 58.883C80.8282 58.4762 81.8269 57.8474 82.3447 57.5885C85.0816 56.331 88.5213 56.257 91.4432 56.9228C97.9157 58.4022 104.795 69.2761 101.725 74.1212C101.466 74.2692 100.135 75.2678 99.839 75.4157"
		stroke="#959EAD"
		stroke-miterlimit="22.9256"
	/>
	<path
		d="M88.2255 50.7087C89.7419 48.0087 92.2199 46.5293 94.8459 46.0115C106.46 43.7554 114.559 54.0005 116.002 64.5785C116.779 70.3113 114.005 73.1222 107.939 73.1962"
		stroke="#959EAD"
		stroke-miterlimit="22.9256"
	/>
	<path
		d="M96.2512 45.7901C97.7676 43.0532 100.246 41.5737 102.872 41.0559C114.485 38.7998 122.585 49.0449 124.028 59.6229C124.804 65.3557 122.03 68.1666 115.928 68.2406"
		stroke="#959EAD"
		stroke-miterlimit="22.9256"
	/>
	<path
		d="M104.277 40.8711C105.794 38.1711 108.235 36.6917 110.898 36.1739C122.511 33.9177 130.611 44.1628 132.054 54.7408C132.831 60.4736 128.466 63.3585 123.991 63.3585"
		stroke="#959EAD"
		stroke-miterlimit="22.9256"
	/>
	<path
		d="M111.638 36.0261C113.117 33.4741 115.484 32.0686 118.036 31.5878C129.428 29.3687 137.38 39.4288 138.822 49.8219C139.525 55.0739 137.676 58.4396 131.832 58.2177"
		stroke="#959EAD"
		stroke-miterlimit="22.9256"
	/>
	<path
		d="M118.961 31.4397C120.44 28.8877 122.844 27.4822 125.359 27.0014C136.751 24.7822 144.74 34.8424 146.145 45.2355C146.885 50.7094 144.518 53.9642 138.748 53.7053"
		stroke="#959EAD"
		stroke-miterlimit="22.9256"
	/>
	<path
		d="M126.062 26.853C127.541 24.4489 129.835 23.1544 132.276 22.6735C143.556 20.4544 151.471 30.4406 152.84 40.7227C153.543 45.9377 151.841 49.5993 146.145 49.0445"
		stroke="#959EAD"
		stroke-miterlimit="22.9256"
	/>
	<path
		d="M133.015 22.5258C134.495 20.3067 136.825 18.7163 139.155 18.2355C150.399 16.0533 158.277 25.9655 159.645 36.2106C160.348 41.4257 158.055 44.1626 152.877 44.5325"
		stroke="#959EAD"
		stroke-miterlimit="22.9256"
	/>
	<path
		d="M140.08 18.0879C141.522 16.2016 143.556 15.129 145.702 14.6852C156.797 12.503 164.601 22.3413 165.97 32.4754C166.673 37.6165 164.416 40.3165 159.349 40.6863"
		stroke="#959EAD"
		stroke-miterlimit="22.9256"
	/>
	<path
		d="M146.996 14.4624C148.402 12.5391 150.362 11.4665 152.47 11.0597C163.048 8.98845 170.482 18.3459 171.814 28.0362C172.442 32.7704 170.445 35.3225 165.97 35.8403"
		stroke="#959EAD"
		stroke-miterlimit="22.9256"
	/>
	<path
		d="M152.803 10.9861C154.134 8.61895 156.317 7.32444 158.647 6.88061C168.929 4.88337 176.141 13.9819 177.436 23.3764C178.064 27.9256 176.178 30.4037 171.888 30.9215"
		stroke="#959EAD"
		stroke-miterlimit="22.9256"
	/>
	<path
		d="M160.644 6.62213C161.827 5.1057 163.455 4.25502 165.193 3.92215C174.255 2.14683 180.616 10.1728 181.726 18.4206C182.244 22.1932 180.801 24.3384 177.509 24.9672"
		stroke="#959EAD"
		stroke-miterlimit="22.9256"
	/>
	<path
		d="M180.358 1.3701C180.838 1.1112 181.43 1.00024 182.059 1.00024C185.166 1.00024 188.568 4.29199 189.678 8.36045C190.529 11.6152 189.641 14.3892 187.644 15.3508"
		stroke="#959EAD"
		stroke-miterlimit="22.9256"
	/>
	<path
		d="M180.468 1.2959C176.215 3.663 173.626 3.03424 170.223 3.9219"
		stroke="#959EAD"
		stroke-miterlimit="22.9256"
	/>
	<path
		d="M187.718 15.3142C184.5 16.7197 183.279 19.0498 181.726 20.9731"
		stroke="#959EAD"
		stroke-miterlimit="22.9256"
	/>
	<path
		d="M67.0696 128.232L75.2065 123.128C79.6818 116.581 73.3942 106.817 66.6257 103.932"
		stroke="#959EAD"
		stroke-miterlimit="22.9256"
	/>
	<path
		d="M36.3341 112.735L32.8944 114.88"
		stroke="#959EAD"
		stroke-miterlimit="22.9256"
	/>
	<path
		d="M50.0559 144.912L62.2983 137.293L67.0695 128.231"
		stroke="#959EAD"
		stroke-miterlimit="22.9256"
	/>
	<path
		d="M66.9955 101.898C67.7352 102.009 68.4009 102.157 69.0297 102.305C74.0228 103.562 82.1967 107.778 83.1953 117.469C83.8241 123.719 78.4981 126.826 73.9119 123.978"
		stroke="#959EAD"
		stroke-miterlimit="22.9256"
	/>
	<path
		d="M64.0735 112.92C67.5872 117.284 69.4364 123.498 67.0693 128.232"
		stroke="#959EAD"
		stroke-miterlimit="22.9256"
	/>
	<path
		d="M60.0051 116.581C64.1476 122.24 65.627 129.933 62.2613 137.293"
		stroke="#959EAD"
		stroke-miterlimit="22.9256"
	/>
	<path
		d="M40.6635 161.138C49.2233 156.483 50.529 142.351 43.5799 129.574C36.6309 116.797 24.0585 110.214 15.4988 114.869C6.93903 119.525 5.63333 133.656 12.5824 146.433C19.5314 159.21 32.1038 165.794 40.6635 161.138Z"
		stroke="#959EAD"
		stroke-miterlimit="22.9256"
	/>
	<path
		d="M13.8098 115.953C15.955 113.364 20.4303 112.143 23.4262 112.143C33.8562 112.143 45.2109 123.165 48.8355 136.776C52.4601 150.387 48.0588 161.113 36.7411 162.481"
		stroke="#959EAD"
		stroke-miterlimit="22.9256"
	/>
	<path
		d="M35.0616 150.837C39.799 148.261 40.5143 140.426 36.6591 133.338C32.8039 126.249 25.8382 122.592 21.1008 125.169C16.3633 127.745 15.6481 135.58 19.5032 142.668C23.3584 149.757 30.3241 153.414 35.0616 150.837Z"
		stroke="#959EAD"
		stroke-miterlimit="22.9256"
	/>
	<path
		d="M26.9027 124.681L19.7274 129.193L20.763 140.326L31.8958 150.238L38.7012 145.985"
		stroke="#959EAD"
		stroke-miterlimit="22.9256"
	/>
	<path
		d="M28.1232 125.088L29.1958 135.925L39.034 144.21"
		stroke="#959EAD"
		stroke-miterlimit="22.9256"
	/>
	<path
		d="M78.905 94.4629C85.7844 97.1259 90.3337 104.634 91.4063 112.327C92.183 118.134 89.3721 120.945 83.1214 120.945"
		stroke="#959EAD"
		stroke-miterlimit="22.9256"
	/>
	<path
		d="M71.064 99.3452C72.3585 99.3452 73.616 99.4931 74.7995 99.7521C81.2721 101.231 88.1515 112.105 85.0816 116.951C84.8227 117.098 83.4912 118.097 83.1954 118.245"
		stroke="#959EAD"
		stroke-miterlimit="22.9256"
	/>
	<path
		d="M81.9747 88.5461C91.5541 88.879 98.1006 98.0145 99.3951 107.446C100.172 113.179 97.3979 115.99 91.3322 116.064"
		stroke="#959EAD"
		stroke-miterlimit="22.9256"
	/>
	<path
		d="M84.009 84.6249C84.7118 84.292 85.4885 84.0701 86.2282 83.9221C97.8418 81.666 105.942 91.9111 107.384 102.489C108.161 108.222 105.387 111.033 99.2842 111.107"
		stroke="#959EAD"
		stroke-miterlimit="22.9256"
	/>
	<path
		d="M99.2103 78.7817C108.124 79.8173 114.19 88.583 115.447 97.5706C116.224 103.303 111.859 106.188 107.384 106.188M87.6707 83.7009C88.0035 83.0721 88.4104 82.5173 88.8542 82.0365"
		stroke="#959EAD"
		stroke-miterlimit="22.9256"
	/>
	<path
		d="M107.532 74.3804C115.595 76.0078 121.032 84.2186 122.179 92.6144C122.881 97.8665 121.032 101.232 115.188 101.01"
		stroke="#959EAD"
		stroke-miterlimit="22.9256"
	/>
	<path
		d="M115.373 69.905C123.177 71.7543 128.466 79.8173 129.576 88.0651C130.315 93.5391 127.948 96.7938 122.178 96.5349"
		stroke="#959EAD"
		stroke-miterlimit="22.9256"
	/>
	<path
		d="M122.881 65.7625C130.241 67.8707 135.198 75.6377 136.27 83.5527C136.973 88.7677 135.272 92.4293 129.576 91.8745"
		stroke="#959EAD"
		stroke-miterlimit="22.9256"
	/>
	<path
		d="M129.908 61.4348C137.121 63.617 141.966 71.2731 143.038 79.1141C143.741 84.3291 141.448 87.0661 136.27 87.4359"
		stroke="#959EAD"
		stroke-miterlimit="22.9256"
	/>
	<path
		d="M135.641 57.6626C143.186 59.5489 148.254 67.3529 149.363 75.3419C150.066 80.4829 147.81 83.1829 142.743 83.5528"
		stroke="#959EAD"
		stroke-miterlimit="22.9256"
	/>
	<path
		d="M140.265 53.7051C148.476 54.5558 154.098 62.6187 155.207 70.9035C155.836 75.6378 153.839 78.1898 149.363 78.7076"
		stroke="#959EAD"
		stroke-miterlimit="22.9256"
	/>
	<path
		d="M145.997 49.4885C154.134 50.1543 159.682 58.0693 160.792 66.2062C161.421 70.7555 159.534 73.2335 155.244 73.7513"
		stroke="#959EAD"
		stroke-miterlimit="22.9256"
	/>
	<path
		d="M152.211 46.5298C159.312 47.1955 164.121 54.1119 165.119 61.2502C165.637 65.0228 164.195 67.168 160.903 67.7967"
		stroke="#959EAD"
		stroke-miterlimit="22.9256"
	/>
	<path
		d="M163.714 44.1992C164.195 43.9403 164.786 43.8293 165.415 43.8293C168.522 43.8293 171.925 47.1211 173.034 51.1895C173.885 54.4443 172.997 57.2183 171 58.1799"
		stroke="#959EAD"
		stroke-miterlimit="22.9256"
	/>
	<path
		d="M163.862 44.1257C159.608 46.4928 157.019 45.8641 153.616 46.7517"
		stroke="#959EAD"
		stroke-miterlimit="22.9256"
	/>
	<path
		d="M171.111 58.1433C167.893 59.5488 166.673 61.8789 165.119 63.8022"
		stroke="#959EAD"
		stroke-miterlimit="22.9256"
	/>
</svg>
