<svg
	width="16"
	height="20"
	viewBox="0 0 16 20"
	fill="none"
	xmlns="http://www.w3.org/2000/svg"
>
	<path
		d="M4.92082 6.58046L4.91899 6.58202L4.91725 6.5838L4.92082 6.58046ZM13.0258 6.42156C12.9691 6.36444 12.9063 6.31446 12.8385 6.27265C12.7426 6.21358 12.6361 6.17573 12.5256 6.16143C12.4152 6.14713 12.3031 6.15669 12.1963 6.18951C12.0895 6.22234 11.9903 6.27774 11.9047 6.35228C11.8192 6.42682 11.7492 6.51892 11.6991 6.62289C11.4186 7.20105 11.0318 7.71558 10.5608 8.13696C10.6328 7.71239 10.6691 7.28203 10.6693 6.85082C10.6708 5.53902 10.3401 4.25022 9.71068 3.11566C9.0813 1.98109 8.1758 1.04127 7.08637 0.391898C6.96635 0.320721 6.83103 0.28261 6.69308 0.281142C6.55513 0.279673 6.41909 0.314894 6.29772 0.3835C6.17635 0.452106 6.07362 0.551848 5.99919 0.673367C5.92475 0.794886 5.88105 0.934197 5.87217 1.07823C5.82661 1.88596 5.62478 2.6756 5.27891 3.39931C4.93305 4.12302 4.45035 4.76573 3.86006 5.28851L3.6724 5.44824C3.05514 5.88277 2.50878 6.41844 2.05428 7.03468C1.34778 7.96588 0.858366 9.05648 0.624853 10.22C0.39134 11.3835 0.420149 12.588 0.708995 13.7378C0.997841 14.8877 1.53878 15.9513 2.28891 16.8443C3.03904 17.7374 3.97774 18.4353 5.03055 18.8828C5.15417 18.9356 5.28832 18.9558 5.42116 18.9416C5.554 18.9274 5.68146 18.8792 5.79229 18.8013C5.90313 18.7233 5.99392 18.6181 6.05668 18.4947C6.11943 18.3714 6.15221 18.2338 6.15213 18.0941C6.15155 18.0037 6.13787 17.914 6.11158 17.8279C5.92941 17.1115 5.87696 16.3657 5.95692 15.6292C6.72738 17.1495 7.96412 18.3546 9.4683 19.0508C9.65191 19.1367 9.85947 19.1483 10.0508 19.0832C11.2392 18.6819 12.3098 17.9694 13.1608 17.0132C14.0119 16.0571 14.6151 14.8892 14.9133 13.6204C15.2114 12.3517 15.1944 11.0242 14.8641 9.76426C14.5337 8.50428 13.9009 7.3536 13.0258 6.42156ZM9.84638 17.352C9.13663 16.9757 8.51052 16.4473 8.00878 15.8012C7.50704 15.1551 7.14089 14.4057 6.93414 13.6018C6.871 13.3311 6.82216 13.057 6.78783 12.7807C6.76458 12.6047 6.68934 12.4408 6.57265 12.3118C6.45596 12.1827 6.30365 12.0951 6.13701 12.0611C6.08567 12.0505 6.03347 12.0452 5.98114 12.0453C5.83803 12.0452 5.69744 12.0847 5.57354 12.1596C5.44965 12.2345 5.34682 12.3423 5.27544 12.4721C4.59985 13.6912 4.26009 15.0823 4.29383 16.491C3.69963 16.0077 3.20304 15.4058 2.83283 14.7201C2.46262 14.0345 2.22615 13.2789 2.13714 12.4969C2.04813 11.715 2.10834 10.9223 2.31428 10.1649C2.52022 9.40753 2.8678 8.70042 3.33687 8.08458C3.69302 7.60057 4.12268 7.18099 4.6087 6.84254C4.62974 6.82833 4.64993 6.81277 4.66913 6.79595C4.66913 6.79595 4.91071 6.58684 4.91896 6.58205C6.079 5.55551 6.90407 4.17594 7.27922 2.63557C8.16638 3.49361 8.75794 4.6341 8.96204 5.87995C9.16614 7.1258 8.97135 8.4073 8.40793 9.52545C8.33349 9.67466 8.30296 9.84359 8.32018 10.0109C8.33739 10.1783 8.4016 10.3365 8.50468 10.4657C8.60777 10.595 8.74512 10.6893 8.89941 10.737C9.05371 10.7846 9.21803 10.7834 9.37165 10.7334C10.6189 10.3244 11.7164 9.52538 12.5165 8.444C12.9973 9.18708 13.3117 10.0341 13.4362 10.922C13.5606 11.8099 13.492 12.7157 13.2353 13.5719C12.9787 14.4282 12.5406 15.2128 11.9538 15.8673C11.3671 16.5218 10.6467 17.0293 9.84636 17.3521L9.84638 17.352Z"
		fill="white"
	/>
</svg>
