<svg width="14" height="13" viewBox="0 0 14 13" fill="none" xmlns="http://www.w3.org/2000/svg">
<path d="M12.2533 1.94023C11.9553 1.64215 11.6016 1.40569 11.2122 1.24436C10.8229 1.08304 10.4055 1 9.98409 1C9.56264 1 9.14531 1.08304 8.75596 1.24436C8.36661 1.40569 8.01286 1.64215 7.71492 1.94023L7.09659 2.55857L6.47825 1.94023C5.87643 1.33841 5.06019 1.00031 4.20909 1.00031C3.35798 1.00031 2.54174 1.33841 1.93992 1.94023C1.3381 2.54205 1 3.3583 1 4.2094C1 5.0605 1.3381 5.87674 1.93992 6.47857L2.55825 7.0969L7.09659 11.6352L11.6349 7.0969L12.2533 6.47857C12.5513 6.18062 12.7878 5.82687 12.9491 5.43752C13.1104 5.04817 13.1935 4.63085 13.1935 4.2094C13.1935 3.78795 13.1104 3.37063 12.9491 2.98127C12.7878 2.59192 12.5513 2.23817 12.2533 1.94023Z" stroke="white" stroke-linecap="round" stroke-linejoin="round"/>
</svg>
