<svg
	width="156"
	height="21"
	viewBox="0 0 156 21"
	fill="none"
	xmlns="http://www.w3.org/2000/svg"
>
	<path
		fill-rule="evenodd"
		clip-rule="evenodd"
		d="M18.8227 7.78595C19.2241 8.82943 19.7057 9.83277 20.2676 10.796C19.7057 11.7592 19.2241 12.7625 18.8227 13.806C18.4214 12.7625 17.9398 11.7592 17.3779 10.796C17.9398 9.83277 18.4214 8.82943 18.8227 7.78595ZM20.2676 0H17.3779V0.0401362C17.3779 2.92977 16.6957 5.61873 15.5318 8.06689C14.8495 7.22408 14.1672 6.46153 13.3645 5.73913C13.3244 5.45819 13.2843 5.17726 13.2843 4.89633C13.2843 4.45485 13.3244 4.01338 13.4448 3.5719C14.0468 4.05351 14.5686 4.57526 15.1304 5.09699C15.3311 4.45485 15.4916 3.81271 15.612 3.17057C15.1304 2.72909 14.6488 2.32775 14.1672 1.92642C13.6856 1.56521 13.204 1.20402 12.7224 0.842812C12.4013 1.32442 12.1605 1.84615 11.9599 2.40803C11.7592 2.9699 11.6388 3.5719 11.5585 4.17391C9.19064 2.40802 6.46154 1.12375 3.49164 0.48161C2.56856 0.280941 1.60535 0.120404 0.602007 0.0401362C0.361204 0.963213 0.200668 1.92643 0.0802663 2.88964C-1.22598e-06 3.53178 0 4.17391 0 4.81605C0 9.35117 1.60535 13.485 4.25418 16.7358C5.21739 16.3746 6.14047 15.9732 6.98327 15.4916C4.41471 12.6823 2.8495 8.9097 2.8495 4.81605C2.8495 4.29431 2.88963 3.8127 2.92976 3.3311C7.46488 4.37458 11.3177 7.06355 13.9264 10.7157C12.8428 12.2408 11.5184 13.6054 10.0334 14.7291C9.47157 15.2107 8.74916 15.6522 7.94649 16.1338C7.86622 16.1739 7.78595 16.214 7.70568 16.2542C6.86287 16.6957 5.9398 17.1371 4.97659 17.5786C5.69899 18.3411 6.46154 19.0635 7.30435 19.7057C8.30769 19.2642 9.2709 18.7826 10.1538 18.1806C10.6355 17.8595 11.1171 17.5385 11.5987 17.1773C11.6789 17.5786 11.7592 18.0201 11.9197 18.3813C12.1204 18.9431 12.3612 19.4649 12.6823 19.9465C13.1639 19.6254 13.6856 19.2642 14.1271 18.8629C14.6087 18.4615 15.1304 18.0602 15.5719 17.6187C15.4515 16.9766 15.291 16.3344 15.0903 15.6923C14.5686 16.214 14.0067 16.7358 13.4047 17.2174C13.2843 16.816 13.2441 16.3746 13.2441 15.893C13.2441 15.8528 13.2441 15.7726 13.2441 15.7324C14.0468 15.01 14.8094 14.2074 15.4916 13.3244C16.5752 15.5318 17.2174 18.0201 17.2977 20.5886H17.3378C17.8194 20.6288 18.301 20.6689 18.7826 20.6689C19.2642 20.6689 19.7458 20.6288 20.2274 20.5886H20.2676C20.388 17.9799 21.0301 15.5318 22.0736 13.3244C22.7559 14.1672 23.4783 14.9699 24.2809 15.6923C24.2809 15.7726 24.2809 15.8127 24.2809 15.893C24.2809 16.3344 24.2408 16.7759 24.1204 17.2174C23.5184 16.7358 22.9967 16.214 22.4348 15.6923C22.2341 16.3344 22.0736 16.9766 21.9532 17.6187C22.4348 18.0602 22.9164 18.4615 23.398 18.8629C23.8796 19.2241 24.3612 19.5853 24.8428 19.9465C25.1639 19.4649 25.4047 18.9431 25.6054 18.3813C25.7659 17.9799 25.8461 17.5786 25.9264 17.1371C26.408 17.4983 26.8896 17.8194 27.4114 18.1405C28.3344 18.7023 29.2977 19.2241 30.2609 19.6656C31.1037 19.0234 31.8662 18.301 32.5886 17.5385C31.5853 17.097 30.6622 16.6555 29.8595 16.214C29.7793 16.1739 29.699 16.1338 29.6187 16.0936C28.8161 15.6522 28.0936 15.1706 27.5318 14.689C26.0468 13.5652 24.7224 12.2007 23.6388 10.6756C26.2475 7.02341 30.1405 4.33445 34.6355 3.29097C34.6756 3.77258 34.7157 4.29431 34.7157 4.77592C34.7157 8.9097 33.1505 12.6421 30.5819 15.4515C31.4649 15.9331 32.388 16.3344 33.3512 16.6957C36 13.4448 37.6053 9.2709 37.6053 4.77592C37.6053 4.13378 37.5652 3.49164 37.5251 2.8495C37.4448 1.88629 37.2441 0.923077 37.0033 0C36.0401 0.0802676 35.0769 0.240805 34.1137 0.441474C31.1438 1.12375 28.4147 2.40802 26.0468 4.13377C26.0067 3.53177 25.8461 2.92976 25.6455 2.36789C25.4448 1.80602 25.204 1.28428 24.8829 0.802676C24.4013 1.12375 23.8796 1.48495 23.4381 1.88629C22.9565 2.28763 22.4348 2.68896 21.9933 3.13043C22.1137 3.77257 22.2742 4.41472 22.4749 5.05686C22.9967 4.53512 23.5585 4.01337 24.1605 3.53177C24.2809 3.93311 24.3211 4.37458 24.3211 4.85619C24.3211 5.13713 24.2809 5.41807 24.2408 5.699C23.4783 6.42141 22.7559 7.18395 22.0736 8.02676C20.9097 5.61873 20.2676 2.88963 20.2274 0C20.2676 0.0401338 20.2676 0.0401338 20.2676 0Z"
		fill="#004636"
	/>
	<path
		d="M149.538 10.5953H151.425C152.629 10.5953 153.632 10.9163 153.632 12.2006C153.632 13.4849 152.629 13.806 151.425 13.806H149.538V10.5953ZM151.304 15.8528C153.953 15.8528 156 15.01 156 12.2006C156 9.39126 153.913 8.54845 151.304 8.54845H149.538V4.97655H147.211V15.8929H151.304V15.8528ZM137.378 4.97655C137.097 8.78926 137.017 13.7257 135.17 13.8461C134.849 13.8461 134.609 13.8461 134.408 13.7658V15.8127C134.849 15.9732 135.251 16.0133 135.612 16.0133C138.622 16.0133 139.144 11.719 139.505 7.06351H142.475V15.8528H144.803V4.93641H137.378V4.97655ZM125.859 4.97655V15.8929H133.645V13.8461H128.227V11.398H133.084V9.35113H128.227V7.02337H133.525V4.97655H125.859ZM117.672 13.806V11.0769H120.08C121.003 11.0769 121.846 11.2776 121.846 12.4414C121.846 13.6053 121.003 13.806 120.08 13.806H117.672ZM117.672 9.03006V7.10365H123.371V5.01668H115.344V15.9331H120.08C122.247 15.9331 124.254 15.2107 124.254 12.5217C124.254 9.83274 122.247 9.11033 120.08 9.11033H117.672V9.03006ZM105.752 4.97655V15.8929H113.538V13.8461H108.12V11.398H112.977V9.35113H108.12V7.02337H113.458V4.97655H105.752ZM101.257 4.97655L97.525 10.6354L93.7926 4.97655H91.6253V15.8929H93.9531V9.15046L96.8427 13.5251H98.2073L101.097 9.15046V15.8528H103.425V4.93641H101.257V4.97655ZM79.4247 8.58859C79.4247 7.50498 80.2274 6.98324 81.4314 6.98324H83.5183V10.1939H81.4314C80.2274 10.1939 79.4247 9.71233 79.4247 8.58859ZM79.1036 15.8528L81.8728 12.1605H83.5183V15.8528H85.8461V4.93641H81.3912C79.1036 4.93641 77.0167 5.97989 77.0167 8.58859C77.0167 10.3545 78.0601 11.3578 79.4648 11.8394L76.4146 15.8528H79.1036ZM75.01 15.8528V4.93641H72.8026L67.7458 12.0401C67.7859 11.5986 67.7859 11.0367 67.7859 10.5551V4.93641H65.4581V15.8528H67.6655L72.7223 8.74912C72.6822 9.19059 72.6822 9.75247 72.6822 10.2341V15.8528H75.01ZM63.6922 12.923C63.6922 11.2776 62.6488 10.4347 61.525 10.1137C62.5685 9.75247 63.2508 8.94979 63.2508 7.74578C63.2508 5.73909 61.525 4.77588 58.9564 4.77588C57.8327 4.77588 56.5886 4.97656 55.3444 5.49829V7.70565C56.6688 7.06351 57.7926 6.86284 58.7558 6.86284C60.1605 6.86284 60.923 7.22405 60.923 8.10699C60.923 8.86953 60.2407 9.23073 59.2374 9.23073H56.9498V11.2776H59.3979C60.4414 11.2776 61.3645 11.5585 61.3645 12.5618C61.3645 13.6856 60.2407 13.9665 59.0367 13.9665C57.8728 13.9665 56.5886 13.8461 55.1839 13.1237V15.3712C56.6287 15.8929 57.913 16.0535 59.1973 16.0535C61.3645 16.0936 63.6922 15.3311 63.6922 12.923ZM48.8026 7.34444L50.5685 11.8796H47.0367L48.8026 7.34444ZM45.5116 15.8528L46.3143 13.806H51.2909L52.0936 15.8528H54.5016L50.0468 4.93641H47.5183L43.0635 15.8528H45.5116Z"
		fill="#4C4F5E"
	/>
</svg>
