<svg width="12" height="12" viewBox="0 0 12 12" fill="none" xmlns="http://www.w3.org/2000/svg">
<path d="M9.72005 6.50018C9.61005 6.50018 9.49505 6.46518 9.38505 6.44018C9.16229 6.39109 8.94338 6.32592 8.73005 6.24518C8.49809 6.16079 8.24312 6.16518 8.0142 6.25748C7.78529 6.34979 7.59859 6.5235 7.49005 6.74518L7.38005 6.97018C6.89305 6.69927 6.44554 6.36279 6.05005 5.97018C5.65743 5.57469 5.32096 5.12718 5.05005 4.64018L5.26005 4.50018C5.48173 4.39164 5.65544 4.20494 5.74775 3.97602C5.84005 3.7471 5.84444 3.49213 5.76005 3.26018C5.68066 3.04639 5.61552 2.82758 5.56505 2.60518C5.54005 2.49518 5.52005 2.38018 5.50505 2.26518C5.44433 1.91299 5.25986 1.59405 4.98486 1.3658C4.70986 1.13755 4.3624 1.01498 4.00505 1.02018H2.50505C2.28957 1.01815 2.07618 1.06258 1.87941 1.15044C1.68264 1.2383 1.50711 1.36753 1.36477 1.52932C1.22243 1.69111 1.11662 1.88168 1.05454 2.08804C0.992471 2.2944 0.97559 2.51171 1.00505 2.72518C1.27142 4.81987 2.22806 6.76612 3.72388 8.2565C5.21969 9.74688 7.1694 10.6964 9.26505 10.9552H9.45505C9.82376 10.9557 10.1797 10.8204 10.4551 10.5752C10.6132 10.4337 10.7396 10.2603 10.8258 10.0663C10.912 9.87241 10.956 9.6624 10.9551 9.45018V7.95018C10.9489 7.60287 10.8225 7.26845 10.5972 7.00401C10.372 6.73957 10.062 6.56149 9.72005 6.50018ZM9.97005 9.50018C9.96996 9.57117 9.95475 9.64133 9.92544 9.70599C9.89613 9.77065 9.85338 9.82832 9.80005 9.87518C9.74418 9.92342 9.67885 9.95945 9.60825 9.98098C9.53765 10.0025 9.46333 10.009 9.39005 10.0002C7.5175 9.76008 5.77817 8.90342 4.44641 7.56532C3.11465 6.22723 2.26626 4.48385 2.03505 2.61018C2.02709 2.53694 2.03407 2.46284 2.05555 2.39237C2.07704 2.3219 2.11259 2.25652 2.16005 2.20018C2.20691 2.14684 2.26458 2.1041 2.32924 2.07479C2.3939 2.04547 2.46406 2.03027 2.53505 2.03018H4.03505C4.15132 2.02759 4.26486 2.06562 4.35612 2.13771C4.44738 2.20981 4.51066 2.31146 4.53505 2.42518C4.55505 2.56184 4.58005 2.69684 4.61005 2.83018C4.66781 3.09375 4.74468 3.35277 4.84005 3.60518L4.14005 3.93018C4.0802 3.95764 4.02636 3.99665 3.98163 4.04498C3.9369 4.0933 3.90215 4.14999 3.87939 4.21178C3.85662 4.27357 3.84629 4.33924 3.84897 4.40504C3.85166 4.47083 3.86732 4.53545 3.89505 4.59518C4.61465 6.13656 5.85367 7.37558 7.39505 8.09518C7.51678 8.14519 7.65332 8.14519 7.77505 8.09518C7.83741 8.07287 7.89471 8.0384 7.94364 7.99377C7.99256 7.94914 8.03213 7.89523 8.06005 7.83518L8.37005 7.13518C8.62853 7.22762 8.89234 7.30442 9.16005 7.36518C9.29338 7.39518 9.42838 7.42018 9.56505 7.44018C9.67877 7.46457 9.78042 7.52785 9.85252 7.61911C9.92461 7.71037 9.96264 7.8239 9.96005 7.94018L9.97005 9.50018Z" fill="white"/>
</svg>
