<svg
	width="16"
	height="17"
	viewBox="0 0 16 17"
	fill="none"
	xmlns="http://www.w3.org/2000/svg"
>
	<path
		d="M7.85713 0.576904C6.84334 0.576904 5.83947 0.776858 4.90285 1.16535C3.96623 1.55384 3.1152 2.12326 2.39834 2.84109C0.950581 4.29083 0.137238 6.2571 0.137238 8.30733C0.130489 10.0924 0.747721 11.8235 1.88193 13.2007L0.337955 14.7468C0.230836 14.8555 0.158272 14.9935 0.129419 15.1435C0.100567 15.2935 0.116719 15.4486 0.175837 15.5894C0.239957 15.7285 0.343903 15.8454 0.474479 15.9252C0.605055 16.005 0.756374 16.0442 0.909227 16.0378H7.85713C9.90457 16.0378 11.8682 15.2233 13.3159 13.7736C14.7637 12.3238 15.577 10.3576 15.577 8.30733C15.577 6.2571 14.7637 4.29083 13.3159 2.84109C11.8682 1.39136 9.90457 0.576904 7.85713 0.576904V0.576904ZM7.85713 14.4917H2.76972L3.48767 13.7727C3.63145 13.6279 3.71216 13.432 3.71216 13.2277C3.71216 13.0235 3.63145 12.8276 3.48767 12.6828C2.47682 11.6716 1.84733 10.3409 1.70645 8.9171C1.56558 7.49336 1.92203 6.06474 2.71508 4.87465C3.50814 3.68457 4.68872 2.80664 6.0557 2.39044C7.42268 1.97425 8.89148 2.04553 10.2119 2.59216C11.5322 3.13879 12.6225 4.12693 13.2969 5.38824C13.9713 6.64955 14.1881 8.10599 13.9104 9.50942C13.6327 10.9128 12.8776 12.1764 11.7738 13.0849C10.6701 13.9934 9.2859 14.4906 7.85713 14.4917V14.4917Z"
		fill="#D6D6D6"
	/>
</svg>
