<svg
	width="20"
	height="20"
	viewBox="0 0 20 20"
	fill="none"
	xmlns="http://www.w3.org/2000/svg"
>
	<path
		d="M17.7164 7.78722C17.6655 7.63992 17.573 7.51054 17.4501 7.41477C17.3271 7.319 17.1791 7.26096 17.0238 7.24767L12.4417 6.57928L10.3882 2.41594C10.3223 2.27979 10.2193 2.16497 10.0912 2.08462C9.96297 2.00428 9.81476 1.96167 9.66348 1.96167C9.5122 1.96167 9.36398 2.00428 9.2358 2.08462C9.10762 2.16497 9.00466 2.27979 8.93872 2.41594L6.88523 6.57123L2.30314 7.24767C2.1541 7.26886 2.01398 7.33139 1.89868 7.42818C1.78339 7.52498 1.69753 7.65215 1.65086 7.79527C1.60813 7.93513 1.6043 8.08398 1.63977 8.22585C1.67523 8.36772 1.74867 8.49726 1.85218 8.60056L5.17802 11.8217L4.37273 16.3958C4.34022 16.5475 4.35224 16.7054 4.40735 16.8504C4.46245 16.9955 4.5583 17.1216 4.68336 17.2134C4.80841 17.3053 4.95735 17.3591 5.11225 17.3683C5.26715 17.3776 5.42143 17.3418 5.55651 17.2655L9.66348 15.1153L13.7704 17.2655C13.8835 17.3292 14.0111 17.3625 14.1409 17.3621C14.3115 17.3627 14.4778 17.3091 14.616 17.2091C14.7409 17.1196 14.8377 16.9962 14.8947 16.8535C14.9518 16.7108 14.9669 16.5548 14.9381 16.4038L14.1328 11.8298L17.4587 8.60861C17.5749 8.51011 17.6609 8.38064 17.7065 8.23524C17.7521 8.08984 17.7555 7.93448 17.7164 7.78722ZM12.7638 11.0084C12.6706 11.0989 12.6007 11.2106 12.56 11.334C12.5194 11.4574 12.5092 11.5888 12.5303 11.717L13.1101 15.0992L10.0822 13.4887C9.96455 13.4304 9.83503 13.4002 9.70374 13.4002C9.57245 13.4002 9.44293 13.4304 9.32526 13.4887L6.29737 15.0992L6.87718 11.717C6.89831 11.5888 6.8881 11.4574 6.84744 11.334C6.80677 11.2106 6.73685 11.0989 6.64365 11.0084L4.22778 8.5925L7.61804 8.10128C7.7485 8.08313 7.87251 8.03326 7.97922 7.95605C8.08592 7.87883 8.17205 7.77662 8.23006 7.65837L9.66348 4.59022L11.1774 7.66642C11.2354 7.78467 11.3216 7.88688 11.4283 7.9641C11.535 8.04132 11.659 8.09118 11.7894 8.10933L15.1797 8.60056L12.7638 11.0084Z"
		fill="#FF4D00"
	/>
</svg>
